<?xml version="1.0" encoding="utf-8"?>
<!-- Generator: Adobe Illustrator 22.1.0, SVG Export Plug-In . SVG Version: 6.00 Build 0)  -->
<svg version="1.1" id="Layer_1" xmlns="http://www.w3.org/2000/svg" xmlns:xlink="http://www.w3.org/1999/xlink" x="0px" y="0px"
	 viewBox="0 0 302.8 296.6" style="enable-background:new 0 0 302.8 296.6;" xml:space="preserve">
<style type="text/css">
	.st0{fill:#FFFFFF;}
</style>
<g id="iUSryY.tif">
	<g>
		<circle class="st0" cx="150.1" cy="148.3" r="148.3"/>
		<path d="M114.1,145.5c2.5,1.3,4.9,2.5,7.5,3.8c0.7-2.1,1.3-4.1,1.9-5.9c-2.9-1.7-5.7-3.3-8.5-5c-0.5-0.3-0.9-0.7-1.5-1
			c-1.2-0.7-1.5-1.6-1-2.9c3.9,1.9,7.8,3.8,11.9,5.9c0.7-2.2,1.3-4.1,2-6.2c-2.1-1-4.2-1.9-6.2-2.9c-1.7-0.8-3.3-1.8-4.9-2.7
			c-1.5-0.9-1.4-0.9-0.7-2.7c4.2,1.8,8.4,3.5,12.8,5.4c0.7-2.1,1.3-4.1,1.9-6c-4.3-1.8-8.4-3.6-12.7-5.5c0.2-0.8,0.4-1.5,0.6-2.3
			c4.4,1.5,8.7,3,13.1,4.5c0.7-2,1.3-3.9,1.9-6c-4.4-1.5-8.7-3-13-4.6c0.3-0.9,0.5-1.6,0.7-2.4c4.5,1.2,8.8,2.4,13.3,3.7
			c0.6-2,1.3-3.9,1.9-6c-4.4-1.2-8.8-2.4-13.3-3.7c0.2-0.8,0.4-1.5,0.7-2.4c4.5,1,9,1.9,13.6,2.9c0.6-1.9,1.3-3.8,2-6
			c-4.5-1-9-2-13.4-2.9c0.3-2.3,0.4-2.4,2.5-2.1c3.9,0.6,7.8,1.2,11.8,1.8c0.6-2,1.3-3.9,1.9-6c-4.6-0.8-9.2-1.5-13.7-2.2
			c0.5-2.2,0.5-2.2,2.5-2c4,0.3,8,0.7,12.2,1c0.6-1.8,1.2-3.8,1.9-6c-4.7-0.5-9.2-1-13.8-1.5c0.3-2,0.3-2.1,2.3-2
			c3.8,0.1,7.6,0.3,11.4,0.5c0.8,0,1.2-0.1,1.4-0.9c0.5-1.7,1.1-3.4,1.7-5.3c-4.1-0.3-8.1-0.6-12.3-0.9c2.6-3.3,5.9-5.4,9.7-6.7
			c9.2-3.2,18.4-2.4,27.5,0.2c8.9,2.5,16.8,6.9,22.9,14c5.9,6.8,7.6,14.6,4.8,23.3c-5.5,17-10.9,34-16.4,51
			c-1.5,4.5-3.9,8.3-7.4,11.6c-0.8,0.7-1.4,1.7-1.8,2.8c-1.5,4.1-2.9,8.3-4.4,12.4c-0.2,0.5-0.6,1.1-1,1.2
			c-8.6,1.7-17.2,2.3-25.8-0.2c-7.7-2.2-13.5-7-18.3-13.2c-1.5-1.9-2.6-4.1-3.9-6.1c-0.1-0.2-0.2-0.5-0.4-1.1
			c1.3,0.8,2.2,1.4,3.2,1.9c6,3.3,12.5,4.9,19.2,5.6c4.8,0.5,9.6,0.5,14.3,0.8c1.1,0.1,1.6-0.3,2-1.4c4.9-14.2,9.8-28.3,14.8-42.5
			c1.5-4.3,5-6.3,9-5.1c2.5,0.7,3.9,2.5,4.8,4.9c0.5-2.4-1.3-5.5-3.9-7.1c-3.4-2.1-7-1.6-10.5,1.2c-10.6-2.7-21-5.3-31.6-8
			c-0.6,1.9-1.2,3.8-2,6c10.2,2.6,20.3,5.1,30.5,7.7c-0.2,0.8-0.5,1.5-0.8,2.6c-10.2-2.3-20.4-4.5-30.8-6.8
			c-0.5,1.7-1.2,3.6-1.8,5.7c10.1,2.9,20.2,5,30.6,6.9c-0.3,0.9-0.5,1.6-0.7,2.4c-10.5-1.1-20.7-3-30.8-6c-0.7,2-1.3,3.9-1.9,6
			c10,3.1,20.2,4.9,30.5,6.1c-0.4,2.4-0.4,2.5-2.6,2.3c-9.7-0.5-19.3-2.2-28.8-5.1c-0.6,2-1.3,3.9-1.9,6c9.9,3.2,20,4.7,30.3,5.4
			c0,2.2-0.3,2.5-2.2,2.5c-9.5-0.1-18.9-1.3-28-4.3c-0.3-0.1-0.7-0.2-1.1-0.3c-0.6,2-1.2,3.9-1.9,5.9c9.9,3.4,20,4.7,30.5,4.9
			c-0.8,2.2-1.5,4.3-2.2,6.3c-0.1,0.2-0.5,0.5-0.8,0.5c-10.2,0-20.3-0.8-29.9-4.9c-4.9-2.1-7.8-6.1-10.2-10.5
			c-0.3-0.6-0.6-1.3-0.8-1.9C114.1,145.8,114.1,145.7,114.1,145.5z M144.3,99c-0.7,2.1-1.3,4-1.9,6c0.7,0.2,1.1,0.3,1.6,0.5
			c5.8,1.6,11.7,3.1,17.5,4.8c3.4,0.9,6.7,2,10,3c1.6,0.5,3.1-0.4,3.7-1.9c0.5-1.5-0.1-3.1-1.6-3.8c-0.4-0.2-0.9-0.4-1.4-0.5
			c-4.5-1.4-9-2.8-13.6-4.1C153.9,101.6,149.2,100.4,144.3,99z M145.4,95.6c0.3,0.1,0.5,0.3,0.6,0.3c9.2,2.1,18.1,5.1,26.9,8.5
			c0.6,0.2,1.3,0.4,2,0.3c1.4-0.1,2.4-1.2,2.6-2.6c0.2-1.7-0.5-2.9-2.4-3.6c-7.3-2.5-14.6-4.9-22-7.3c-1.9-0.6-3.9-1-5.9-1.5
			C146.6,91.8,146,93.7,145.4,95.6z M150.2,80.4c-0.7,2.1-1.3,4-1.9,6c2.4,0.6,4.7,1.2,6.9,1.8c6.8,1.9,13.3,4.5,19.7,7.5
			c2,0.9,3.8,0.4,4.6-1.3c0.8-1.8,0.1-3.5-2-4.4c-1.5-0.7-3-1.4-4.6-2.1C165.7,84.7,158.2,82.2,150.2,80.4z M151.3,77.1
			c0.5,0.1,0.7,0.2,1,0.3c6.1,1.4,12,3.2,17.6,5.9c2.5,1.2,4.9,2.6,7.3,3.8c1.2,0.6,2.4,0.6,3.5-0.2c1.1-0.8,1.6-2,1.1-3.1
			c-0.4-1-1.2-1.9-2.1-2.5c-6.3-3.9-13.1-6.6-20.1-8.7c-2.1-0.6-4.3-1.1-6.4-1.6C152.5,73.1,151.9,75,151.3,77.1z"/>
		<path d="M139.6,194c0,4.4,0,8.4,0,12.4c0.6,0,1,0,1.6,0c0-8.2,0-16.3,0-24.5c3.6,0.5,7,1,10.5,1.5c0,7.6,0,15.2,0,23
			c0.5,0,0.9,0,1.5,0.1c0-4.1,0-8,0-12.3c2.7,0.4,5.3,0.6,7.8,1.1c6.8,1.3,13.3,3.2,19,7.3c2.3,1.7,4.3,3.7,5.3,6.4
			c1.5,4.2,0.1,7.7-2.9,10.6c-3.9,3.9-8.7,6.1-13.9,7.6c-15.6,4.5-31.3,4.4-46.7-0.9c-4-1.4-7.8-3.3-10.9-6.3
			c-5.3-5.1-5.1-11.3,0.5-16.2c4.7-4.1,10.4-6.3,16.3-7.7C131.5,195.3,135.4,194.8,139.6,194z"/>
		<path d="M185.8,219.8c-0.5,2.9-2,5-4,6.8c-4,3.6-8.7,5.7-13.8,7.1c-15.3,4.2-30.5,4.2-45.6-0.8c-4.8-1.6-9.3-3.9-12.7-7.8
			c-1.2-1.4-2.2-3-2.5-5.1c7.6,8.9,18,11.4,28.7,12.9c9.9,1.3,19.7,0.9,29.4-1.5c6.5-1.6,12.8-3.8,17.8-8.6
			C184,221.9,184.8,220.9,185.8,219.8z"/>
		<path d="M136.8,252.6c1,0.1,1.8,0.1,2.5,0.1c-0.6,8.2-1.2,16.3-1.9,24.4c-2.5,0.3-2.5,0.3-2.6-2c-1.2,0.6-2.4,1.5-3.8,1.8
			c-3,0.7-5.7-1-6.9-4.1c-1.2-3.1-1-6.3,0.4-9.4c2.1-4.7,8.4-5.6,11.5-1.1C136.3,259.1,136.6,255.9,136.8,252.6z M135.5,267.5
			c0,0-0.1,0-0.1,0c0-0.4,0-0.8,0-1.2c-0.1-2.5-1.6-4.2-4-4.6c-2-0.3-4,0.9-4.7,3.2c-0.8,2.3-0.8,4.6-0.1,6.8c0.6,2,2.3,3.2,4,3.2
			c1.9,0,3.7-1.3,4.2-3.3C135.2,270.3,135.3,268.9,135.5,267.5z"/>
		<path d="M92.4,258.7c-1.2,3.2-2.4,6.3-3.7,9.5c-0.8-0.3-1.6-0.6-2.5-1c2.8-7.2,5.5-14.3,8.3-21.7c3.1,1.3,6.2,2.4,9.1,4
			c2.7,1.5,3.5,5.1,2.1,7.9c-1.5,3-4.4,4.3-7.5,3.3C96.3,260.2,94.4,259.5,92.4,258.7z M93.1,256.6c1.7,0.7,3.4,1.3,5,1.9
			c2.3,0.8,4.3-0.1,5.1-2.1c0.9-2.1,0.1-4.3-2.1-5.3c-1.6-0.8-3.3-1.4-5.1-2.1C95.1,251.5,94.1,253.9,93.1,256.6z"/>
		<path d="M136.7,38.7c-0.9,0-1.7,0-2.7,0c-0.3-8.1-0.5-16.2-0.8-24.5c1-0.1,1.9-0.1,2.9-0.2c0,3.5,0,6.8,0,10.2
			c0.1,0.1,0.2,0.1,0.3,0.2c0.6-0.6,1.1-1.2,1.7-1.7c1.7-1.4,3.6-1.9,5.6-1.1c2.1,0.8,3,2.5,3.2,4.6c0.3,4,0.4,8,0.6,12.1
			c-0.9,0.1-1.7,0.1-2.6,0.2c-0.1-2.9-0.2-5.7-0.3-8.5c-0.1-1.2-0.1-2.5-0.3-3.7c-0.4-2.4-2.5-3.4-4.7-2.3c-2.2,1.1-3.3,2.8-3.2,5.4
			c0.1,2.7,0.2,5.3,0.3,8C136.7,37.7,136.7,38.1,136.7,38.7z"/>
		<path d="M172.6,267.1c-0.1-2-0.2-3.7-2-4.5c-2.6-1-4.9-0.2-7,1.6c-0.4-0.5-0.9-1-1.3-1.4c1.7-2.4,5.3-3.4,8.6-2.5
			c2.7,0.8,4,2.5,4.2,5.8c0.2,3.5,0.4,7.1,0.6,10.8c-0.9,0-1.6,0-2.5,0c-0.1-0.4-0.2-0.9-0.2-1.1c-1.8,0.7-3.7,1.3-5.5,1.9
			c-0.3,0.1-0.7,0.1-1,0.1c-2.7-0.1-4.9-1.8-5.3-4c-0.4-2.2,1.2-4.7,3.9-5.6c1.6-0.5,3.4-0.7,5.1-0.9
			C170.9,267.2,171.7,267.1,172.6,267.1z M172.7,268.9c-2.3,0.4-4.6,0.7-6.8,1.3c-1.3,0.3-2.1,1.5-1.9,3c0.1,1.3,1.2,2.2,2.7,2.5
			C170.3,276.2,173.4,273.1,172.7,268.9z"/>
		<path d="M155.8,25.1c-0.4-0.5-0.8-1-1.1-1.5c2.7-3.4,9.6-3,11.7,0.7c0.4,0.7,0.6,1.5,0.7,2.2c0.1,4,0,8.1,0,12.2
			c-1.2,0-1.9,0-2.8,0c-0.1-0.5-0.1-1-0.1-1.5c-1.2,0.5-2.3,1.2-3.5,1.4c-1.6,0.2-3.4,0.2-4.9-0.2c-1.9-0.5-3.1-2-3.2-4
			c-0.1-2,0.9-3.6,2.7-4.4c1.4-0.6,2.9-1,4.4-1.2c1.6-0.2,3.1,0,4.7,0c0.6-1.9,0.2-3.6-1.1-4.4C160.7,22.7,158.3,23.4,155.8,25.1z
			 M164.5,30.6c-2.4,0.2-4.8,0.3-7.1,0.7c-1.3,0.2-2.2,1.4-2.1,2.8c0,1.3,1.1,2.4,2.5,2.7C161.5,37.6,164.6,35,164.5,30.6z"/>
		<path d="M113.5,257.5c3.1,0,5.8,2,6.7,4.9c1,3.2,0.6,6.3-1.1,9.1c-1.5,2.5-3.7,3.8-6.7,3.6c-3-0.1-5.2-1.7-6.5-4.4
			C103.1,264.8,107.3,257.4,113.5,257.5z M118.3,265.6c-0.1,0-0.2-0.1-0.3-0.1c0-0.3,0-0.7-0.1-1c-0.2-2.3-1.7-4.1-3.6-4.6
			c-2.1-0.5-4.1,0.5-5.3,2.6c-1.2,2.1-1.6,4.4-0.9,6.7c0.6,2,1.8,3.4,4,3.7c2,0.2,3.6-0.7,4.5-2.4
			C117.4,268.9,117.8,267.2,118.3,265.6z"/>
		<path d="M192.6,260c-0.4,0.9-0.8,1.6-1,2.1c-1.3-0.6-2.5-1.4-3.8-1.7c-1.1-0.2-2.5,0.1-3.5,0.6c-0.6,0.3-1.3,1.3-1.3,2
			c0,0.6,0.9,1.4,1.6,1.7c1,0.4,2.1,0.5,3.2,0.7c0.8,0.2,1.6,0.2,2.3,0.4c2.7,0.7,4.1,2,4.3,4.1c0.2,2-1.2,4.2-3.5,5.2
			c-3.4,1.5-6.8,1.2-10.1-0.8c0.4-0.9,0.7-1.8,1-2.7c2.3,2.4,5.9,2.9,8.4,1.2c0.7-0.5,1.5-1.6,1.4-2.3c-0.1-0.7-1.1-1.6-1.9-1.9
			c-1.6-0.5-3.3-0.7-4.9-1c-2.9-0.6-4.4-2-4.5-4c-0.1-2,1.5-4,4.1-4.9C187.1,257.8,189.9,258,192.6,260z"/>
		<path d="M178.4,25.2c-1.3-0.2-2.5-0.4-3.9-0.7c0.1-0.7,0.3-1.3,0.4-2.1c1.3,0.2,2.6,0.3,3.9,0.5c0.2-0.8,0.3-1.6,0.5-2.4
			c0.5-2.3,0.7-2.4,3.3-1.9c-0.4,1.5-0.8,3-1.2,4.6c1.9,0.3,3.6,0.6,5.4,0.8c-0.1,0.7-0.2,1.3-0.3,2.1c-1.8-0.2-3.5-0.5-5.5-0.7
			c-0.9,3.5-1.8,7-1.5,10.7c0.1,1.5,1.7,2.4,3.3,2.2c1-0.2,1.9-0.5,2.9-0.8c0.2,0.6,0.3,1.2,0.6,2c-2.4,1.2-4.8,1.8-7.3,0.7
			c-1.7-0.8-2.7-2.7-2.4-4.8c0.4-3.1,1-6.1,1.5-9.2C178.3,25.9,178.3,25.6,178.4,25.2z"/>
		<path d="M198.5,256.4c-0.4-1.5-0.8-2.9-1.2-4.4c0.9-0.5,1.6-0.9,2.5-1.4c0.4,1.7,0.8,3.2,1.2,4.8c1.8-0.6,3.4-1.2,5.2-1.8
			c0.3,0.7,0.5,1.3,0.8,2c-1.8,0.7-3.4,1.3-5.5,2c1.2,3.2,2.3,6.5,3.6,9.6c0.7,1.7,2.5,1.9,4,0.9c0.8-0.6,1.5-1.4,2.5-2.2
			c0.4,0.4,0.8,0.9,1.4,1.5c-1.4,2.1-3.2,3.6-5.6,3.9c-2.1,0.3-3.9-0.7-4.8-2.9c-1.1-2.7-1.9-5.5-2.8-8.2c-0.2-0.5-0.3-1-0.5-1.7
			c-1.2,0.4-2.4,0.8-3.7,1.2c-0.2-0.7-0.4-1.3-0.6-2C196.1,257.3,197.2,256.8,198.5,256.4z"/>
		<path d="M117.3,19.6c-2.2,0.3-4.3,0.5-6.5,0.8c-0.1-0.7-0.2-1.4-0.4-2.3c5.3-0.7,10.5-1.4,15.8-2c0.1,0.8,0.2,1.4,0.3,2.3
			c-2.2,0.3-4.4,0.6-6.8,0.9c0.9,6.9,1.7,13.7,2.6,20.6c-0.8,0.1-1.6,0.3-2.6,0.4C119.1,33.4,118.3,26.6,117.3,19.6z"/>
		<path d="M157.4,263.6c-0.5,0.6-1.1,1.3-1.7,2c-1.8-2.9-5.1-3.8-7.7-2.1c-2.9,1.8-3.6,6.5-1.5,9.7c2,3,5.4,3.3,9.2,0.6
			c0.4,0.5,0.9,1.1,1.4,1.6c-3.3,3.5-8.8,3.6-12.1,0.2c-3.4-3.6-3.1-10.2,0.7-13.3C149.2,259.3,154.7,259.9,157.4,263.6z"/>
		<path d="M29.2,141.3c-1.1,0-2-0.9-1.9-1.9c0.1-1.1,0.7-1.7,1.8-1.7c1.1,0,1.9,0.8,1.8,1.9C30.8,140.6,30.2,141.2,29.2,141.3z"/>
		<path d="M33.7,145.8c-1,0-2-0.8-1.9-1.8c0.1-1.1,0.6-1.7,1.8-1.8c1.1,0,1.9,0.8,1.9,1.8C35.4,144.9,34.6,145.7,33.7,145.8z"/>
		<path d="M60.6,142.2c1.1,0.1,1.7,0.7,1.8,1.8c0.1,1-0.8,1.9-1.8,1.9c-1.1-0.1-1.7-0.7-1.8-1.8C58.6,143,59.5,142.1,60.6,142.2z"/>
		<path d="M65.1,145.8c-1,0-1.9-0.9-1.8-1.9c0.1-1.1,0.7-1.7,1.8-1.7c1.1,0,1.7,0.7,1.8,1.7C67,144.8,66.1,145.8,65.1,145.8z"/>
		<path d="M60.5,151.1c1,0,1.9,0.9,1.8,1.9c-0.1,1.1-0.7,1.7-1.8,1.7c-1.1,0-1.7-0.6-1.9-1.7C58.6,152,59.5,151.1,60.5,151.1z"/>
		<path d="M65.1,154.7c-1,0-2-0.8-1.9-1.8c0.1-1.1,0.7-1.7,1.8-1.8c1-0.1,1.9,0.8,1.9,1.8C66.9,153.9,66.1,154.7,65.1,154.7z"/>
		<path d="M30.9,157.5c-0.1,1.1-0.7,1.7-1.8,1.7c-1,0-1.9-0.9-1.8-1.9c0.1-1.1,0.7-1.7,1.8-1.8C30.1,155.5,30.9,156.4,30.9,157.5z"
			/>
		<path d="M26.4,135.2c-0.1,1-0.7,1.6-1.8,1.6c-1,0.1-1.9-0.9-1.8-1.9c0.1-1.1,0.7-1.7,1.8-1.8C25.6,133.1,26.4,134,26.4,135.2z"/>
		<path d="M45.3,135c0-1.1,0.7-1.7,1.7-1.8c1-0.1,1.9,0.8,1.9,1.8c0,1-0.9,1.9-1.9,1.8C46,136.7,45.3,136.1,45.3,135z"/>
		<path d="M53.4,135c0,1-0.9,1.9-1.9,1.8c-1-0.1-1.7-0.7-1.7-1.8c0-1,0.9-1.9,1.9-1.8C52.7,133.3,53.3,133.9,53.4,135z"/>
		<path d="M75.8,166.6c-0.1,0.9-0.7,1.5-1.8,1.6c-1,0.1-1.9-0.8-1.8-1.9c0.1-1.1,0.7-1.7,1.8-1.8C75,164.5,75.9,165.4,75.8,166.6z"
			/>
		<path d="M38,141.3c-1-0.1-1.6-0.7-1.7-1.7c-0.1-1,0.8-1.9,1.8-1.9c1.1,0,1.7,0.6,1.8,1.7C40,140.4,39.1,141.3,38,141.3z"/>
		<path d="M57.9,139.5c-0.1,1.1-0.7,1.7-1.8,1.8c-1,0.1-1.9-0.9-1.8-1.9c0-1,0.9-1.8,2-1.7C57.3,137.8,57.8,138.5,57.9,139.5z"/>
		<path d="M62.4,139.4c0,1-0.9,1.9-1.9,1.8c-1.1-0.1-1.7-0.7-1.8-1.8c-0.1-1,0.9-1.9,1.9-1.8C61.7,137.7,62.3,138.4,62.4,139.4z"/>
		<path d="M69.5,137.7c1.1,0.1,1.7,0.7,1.8,1.8c0.1,1-0.8,1.9-1.8,1.9c-1,0-1.9-0.9-1.8-1.9C67.8,138.3,68.5,137.7,69.5,137.7z"/>
		<path d="M87.6,141.3c-1,0-2-0.9-1.9-1.9c0.1-1.1,0.7-1.7,1.8-1.8c1.1,0,1.7,0.6,1.9,1.7C89.4,140.3,88.6,141.3,87.6,141.3z"/>
		<path d="M49.8,166.6c0-1.2,0.8-2.1,1.8-2c1.1,0.1,1.7,0.7,1.8,1.8c0,1-0.8,2-1.8,1.9C50.5,168.1,49.9,167.5,49.8,166.6z"/>
		<path d="M75.8,161.9c0,1-0.8,1.9-1.8,1.9c-1.1-0.1-1.7-0.7-1.8-1.8c0-1.1,0.6-1.7,1.7-1.9C74.9,159.9,75.8,160.8,75.8,161.9z"/>
		<path d="M53.4,161.9c0,1.1-0.7,1.7-1.7,1.9c-1,0.1-1.9-0.8-1.9-1.8c0-1,0.9-1.9,1.9-1.8C52.7,160.2,53.3,160.8,53.4,161.9z"/>
		<path d="M35.4,148.5c0,1-0.9,1.8-1.9,1.8c-1.1-0.1-1.7-0.8-1.7-1.8c-0.1-1,0.9-1.8,1.9-1.8C34.7,146.7,35.4,147.5,35.4,148.5z"/>
		<path d="M64.8,150.2c-1-0.1-1.6-0.7-1.6-1.8c-0.1-1,0.8-1.9,1.9-1.8c1.1,0.1,1.7,0.7,1.8,1.8C66.9,149.4,66,150.3,64.8,150.2z"/>
		<path d="M35.4,153c0,1-0.9,1.8-2,1.7c-1.1-0.1-1.7-0.8-1.7-1.9c0-1,1-1.8,2-1.7C34.7,151.2,35.5,152.1,35.4,153z"/>
		<path d="M48.9,161.8c0,1.1-0.9,2.1-1.9,2c-1-0.1-1.7-0.7-1.7-1.8c0-1,0.9-1.9,1.9-1.8C48.2,160.2,48.8,160.8,48.9,161.8z"/>
		<path d="M69.4,155.6c1.1,0,2,0.9,1.9,1.9c-0.1,1.1-0.7,1.7-1.8,1.7c-1.1,0-1.9-0.8-1.8-1.9C67.8,156.2,68.5,155.7,69.4,155.6z"/>
		<path d="M60.2,159.2c-1-0.2-1.5-0.8-1.5-1.9c0-1,1-1.9,2-1.7c1.1,0.2,1.6,0.9,1.6,1.9C62.3,158.6,61.4,159.3,60.2,159.2z"/>
		<path d="M38.1,159.2c-1.1-0.1-1.7-0.7-1.8-1.7c-0.1-1,0.8-1.9,1.8-1.9c1,0,1.9,0.9,1.8,1.9C39.8,158.5,39.2,159.1,38.1,159.2z"/>
		<path d="M56,159.2c-1,0-1.9-0.9-1.8-1.9c0.1-1.1,0.8-1.7,1.8-1.7c1,0,1.8,0.9,1.8,1.9C57.8,158.5,57,159.2,56,159.2z"/>
		<path d="M17.5,130.7c-0.1,1-0.7,1.6-1.8,1.7c-1,0.1-1.9-0.8-1.8-1.9c0.1-1.1,0.7-1.7,1.8-1.8C16.6,128.6,17.5,129.5,17.5,130.7z"
			/>
		<path d="M44.4,130.4c0,1-0.8,1.9-1.8,1.9c-1.1-0.1-1.7-0.7-1.8-1.8c0-1.1,0.6-1.7,1.7-1.9C43.4,128.5,44.4,129.4,44.4,130.4z"/>
		<path d="M48.9,130.3c0,1.2-0.9,2.1-1.9,2c-1.1-0.1-1.7-0.7-1.7-1.8c0-1,0.9-1.9,1.9-1.8C48.2,128.8,48.8,129.4,48.9,130.3z"/>
		<path d="M53.4,130.5c0,1.1-0.7,1.7-1.7,1.8c-1,0.1-1.9-0.8-1.9-1.8c0-1,0.9-1.9,1.9-1.8C52.6,128.7,53.4,129.5,53.4,130.5z"/>
		<path d="M29.1,132.3c-1.1,0-1.9-1-1.8-1.9c0.1-1.1,0.8-1.7,1.9-1.7c1,0,1.8,0.9,1.8,1.9C30.8,131.7,30.1,132.2,29.1,132.3z"/>
		<path d="M24.6,132.3c-1,0-1.9-0.9-1.8-1.9c0.1-1.1,0.8-1.7,1.8-1.7c1-0.1,1.8,0.9,1.8,1.9C26.4,131.6,25.6,132.3,24.6,132.3z"/>
		<path d="M66.9,162c0,1-1,1.9-2,1.8c-1.1-0.1-1.7-0.8-1.7-1.9c0-1.1,0.7-1.7,1.8-1.8C66,160,66.9,161,66.9,162z"/>
		<path d="M48.9,153.1c-0.1,0.9-0.6,1.6-1.7,1.7c-1.1,0.1-1.9-0.7-1.9-1.7c0-1.1,0.6-1.7,1.7-1.9C48,151,48.8,151.8,48.9,153.1z"/>
		<path d="M38.2,154.7c-1.1,0-1.9-0.8-1.9-1.8c0.1-1.1,0.6-1.7,1.7-1.8c1-0.1,1.9,0.8,1.9,1.8C39.9,153.9,39.1,154.7,38.2,154.7z"/>
		<path d="M93.8,139.4c0,1.1-1,2-1.9,1.9c-1.1-0.1-1.7-0.8-1.7-1.8c-0.1-1,0.9-1.9,1.9-1.8C93.2,137.7,93.7,138.4,93.8,139.4z"/>
		<path d="M37.9,145.8c-0.9-0.1-1.6-0.7-1.6-1.8c-0.1-1,0.8-1.8,1.9-1.8c1.1,0.1,1.7,0.7,1.8,1.8C40,144.9,39,145.8,37.9,145.8z"/>
		<path d="M57.9,130.5c0,1.1-0.6,1.7-1.7,1.8c-1,0.1-1.9-0.8-1.9-1.8c0-1,0.9-1.9,1.9-1.9C57.1,128.8,57.8,129.4,57.9,130.5z"/>
		<path d="M48.9,143.9c0,1-0.8,1.9-1.9,1.8c-1.1-0.1-1.7-0.7-1.8-1.8c0-1.1,0.8-1.9,1.8-1.8C48.1,142.2,48.9,142.9,48.9,143.9z"/>
		<path d="M78.7,145.8c-1.2,0-2-0.9-1.9-1.9c0.1-1.1,0.7-1.7,1.8-1.7c1.1,0,1.8,0.8,1.8,1.9C80.2,145.2,79.5,145.7,78.7,145.8z"/>
		<path d="M89.3,144c-0.1,1-0.6,1.7-1.7,1.8c-1,0.1-2-0.8-1.9-1.8c0-1.1,0.6-1.7,1.7-1.8C88.5,142.1,89.3,142.9,89.3,144z"/>
		<path d="M93.8,134.9c0,1-0.9,2-1.9,1.9c-1.1-0.1-1.7-0.7-1.8-1.8c-0.1-1,0.8-2,1.8-1.9C93.1,133.2,93.7,133.9,93.8,134.9z"/>
		<path d="M78.5,151.1c1,0,1.9,0.8,1.8,1.9c-0.1,1.1-0.7,1.7-1.8,1.7c-1.1,0-1.7-0.6-1.8-1.7C76.6,152,77.5,151.1,78.5,151.1z"/>
		<path d="M21.9,135.2c-0.1,0.9-0.7,1.5-1.8,1.6c-1,0.1-1.9-0.8-1.8-1.9c0-1.1,0.7-1.7,1.8-1.8C21.1,133.1,22,134,21.9,135.2z"/>
		<path d="M21.9,130.7c-0.1,1-0.7,1.6-1.8,1.6c-1,0.1-1.9-0.8-1.8-1.9c0-1.1,0.7-1.7,1.8-1.8C21.1,128.6,22,129.5,21.9,130.7z"/>
		<path d="M33.6,136.8c-1.1,0-2-1-1.8-2c0.1-1.1,0.8-1.7,1.9-1.7c1,0,1.9,1,1.8,2C35.3,136.2,34.6,136.7,33.6,136.8z"/>
		<path d="M65.1,133.1c1.1,0.1,1.7,0.7,1.8,1.8c0.1,1-0.9,1.9-1.9,1.9c-1,0-1.9-1-1.8-1.9C63.3,133.8,64,133.2,65.1,133.1z"/>
		<path d="M65.1,159.2c-1.2-0.1-1.8-0.7-1.9-1.8c-0.1-1,0.9-1.9,1.9-1.9c1.1,0.1,1.7,0.7,1.8,1.8C66.9,158.4,66,159.3,65.1,159.2z"
			/>
		<path d="M62.4,148.5c-0.1,1-0.6,1.7-1.7,1.8c-1,0.1-2-0.7-1.9-1.8c0-1.1,0.6-1.7,1.7-1.8C61.5,146.6,62.4,147.4,62.4,148.5z"/>
		<path d="M53.4,153.1c-0.1,0.9-0.7,1.5-1.8,1.6c-1.1,0-1.9-0.8-1.8-1.9c0.1-1.1,0.7-1.7,1.8-1.7C52.6,151.1,53.4,151.9,53.4,153.1z
			"/>
		<path d="M57.9,148.5c-0.1,1.1-0.7,1.7-1.8,1.8c-1,0-1.9-0.8-1.9-1.8c0-1,0.9-1.8,1.9-1.8C57.3,146.7,57.8,147.4,57.9,148.5z"/>
		<path d="M51.8,150.2c-1.2,0-2.1-0.8-2-1.8c0.1-1.1,0.7-1.7,1.8-1.8c1.1,0,1.9,0.8,1.8,1.8C53.3,149.6,52.7,150.1,51.8,150.2z"/>
		<path d="M20.2,145.8c-1,0-1.9-0.8-1.8-1.8c0-1.1,0.7-1.7,1.8-1.7c1.1,0,1.7,0.6,1.8,1.7C22,144.9,21.2,145.8,20.2,145.8z"/>
		<path d="M26.4,144c-0.1,1.1-0.7,1.7-1.8,1.8c-1,0.1-1.9-0.8-1.9-1.8c0-1,0.8-1.8,1.9-1.8C25.8,142.2,26.3,142.9,26.4,144z"/>
		<path d="M48.9,148.4c0,1.2-0.9,2-2,1.9c-1.1-0.1-1.7-0.8-1.6-1.9c0-1.1,0.9-1.8,1.9-1.7C48.3,146.8,48.8,147.4,48.9,148.4z"/>
		<path d="M78.5,150.2c-1.1,0-1.9-0.8-1.8-1.9c0.1-1.1,0.7-1.7,1.8-1.7c1.1,0,1.8,0.8,1.8,1.9C80.3,149.5,79.5,150.2,78.5,150.2z"/>
		<path d="M38.1,150.2c-1,0-1.9-0.8-1.9-1.8c0.1-1.1,0.6-1.7,1.8-1.8c1-0.1,1.9,0.8,1.9,1.8C39.9,149.4,39.1,150.2,38.1,150.2z"/>
		<path d="M75.8,148.5c0,1-0.9,1.8-1.9,1.7c-1.1-0.1-1.7-0.8-1.7-1.8c0-1.1,0.7-1.7,1.8-1.7C75.1,146.6,75.9,147.4,75.8,148.5z"/>
		<path d="M71.4,148.4c0,1-0.8,1.9-1.8,1.8c-1.1,0-1.7-0.7-1.8-1.8c0-1.1,0.6-1.7,1.7-1.8C70.5,146.6,71.3,147.4,71.4,148.4z"/>
		<path d="M29.3,146.6c0.9,0.1,1.5,0.7,1.6,1.8c0.1,1-0.8,1.9-1.8,1.8c-1.1,0-1.7-0.7-1.8-1.8C27.2,147.5,28.1,146.6,29.3,146.6z"/>
		<path d="M51.7,145.8c-1.2,0-2-0.8-2-1.9c0.1-1.1,0.7-1.7,1.8-1.7c1.1,0,1.9,0.8,1.8,1.8C53.3,145.1,52.6,145.6,51.7,145.8z"/>
		<path d="M26.4,148.5c-0.1,1.1-0.7,1.7-1.8,1.7c-1.1,0-1.9-0.8-1.8-1.8c0-1,0.9-1.8,1.9-1.8C25.8,146.7,26.4,147.4,26.4,148.5z"/>
		<path d="M19.9,146.6c1.2,0,2.1,0.7,2,1.8c0,1.1-0.6,1.7-1.7,1.8c-1.1,0.1-1.9-0.7-1.9-1.8C18.4,147.3,19,146.8,19.9,146.6z"/>
		<path d="M74,145.8c-1,0-1.8-0.9-1.7-1.9c0.1-1.1,0.7-1.7,1.8-1.7c1.1,0,1.7,0.7,1.8,1.8C75.9,145,75,145.8,74,145.8z"/>
		<path d="M33.7,159.2c-1.2-0.1-1.8-0.7-1.9-1.7c-0.1-1,0.8-1.9,1.8-1.9c1,0,1.9,0.9,1.8,1.9C35.4,158.4,34.6,159.2,33.7,159.2z"/>
		<path d="M33.6,137.7c1.2,0.1,1.8,0.7,1.8,1.8c0.1,1-0.9,1.9-1.9,1.8c-1.1-0.1-1.7-0.7-1.8-1.8C31.7,138.5,32.6,137.6,33.6,137.7z"
			/>
		<path d="M65.1,137.7c1.1,0.1,1.7,0.7,1.8,1.8c0.1,1-0.9,1.9-1.9,1.9c-1,0-1.9-1-1.8-1.9C63.3,138.3,64,137.7,65.1,137.7z"/>
		<path d="M67.7,135c0-1.1,0.7-1.7,1.7-1.8c1-0.1,1.9,0.8,1.9,1.8c0,1-0.9,1.9-1.9,1.8C68.4,136.7,67.8,136.1,67.7,135z"/>
		<path d="M57.9,135c0,1.1-0.7,1.7-1.7,1.8c-1,0.1-1.9-0.8-1.9-1.8c0-1,0.9-1.9,1.9-1.8C57.2,133.3,57.8,133.9,57.9,135z"/>
		<path d="M21.9,139.3c0,1.2-0.8,2.1-1.8,2c-1.1-0.1-1.7-0.7-1.8-1.8c0-1.1,0.8-1.9,1.8-1.8C21.2,137.7,21.8,138.3,21.9,139.3z"/>
		<path d="M57.9,161.9c-0.1,1.1-0.7,1.7-1.8,1.8c-1,0.1-1.9-0.9-1.9-1.9c0.1-1.1,0.7-1.7,1.8-1.8C57,160,57.9,160.9,57.9,161.9z"/>
		<path d="M44.4,135c0,1-0.9,1.9-1.9,1.8c-1-0.1-1.7-0.7-1.7-1.8c0-1.1,0.7-1.7,1.7-1.8C43.5,133,44.4,134,44.4,135z"/>
		<path d="M30.9,135c-0.1,1.1-0.7,1.7-1.8,1.8c-1,0.1-1.9-0.9-1.9-1.9c0-1,0.9-1.9,1.9-1.8C30.2,133.2,30.9,134,30.9,135z"/>
		<path d="M74,154.7c-1.1-0.1-1.7-0.7-1.8-1.8c0-1.1,0.8-1.9,1.8-1.9c1,0,1.9,0.9,1.8,1.9C75.7,154.1,75.1,154.7,74,154.7z"/>
		<path d="M44.4,161.9c0,1-0.9,2-1.8,1.9c-1.1-0.1-1.7-0.7-1.8-1.8c0-1.1,0.6-1.7,1.7-1.9C43.4,159.9,44.4,160.9,44.4,161.9z"/>
		<path d="M36.3,135c0.1-1.1,0.7-1.7,1.7-1.8c1-0.1,1.9,0.8,1.9,1.8c0,1-0.9,1.9-1.9,1.9C37.1,136.8,36.3,135.9,36.3,135z"/>
		<path d="M69.4,154.7c-0.9,0-1.6-0.6-1.7-1.7c-0.1-1,0.7-1.9,1.7-2c1,0,1.9,0.8,1.9,1.8C71.4,153.9,70.6,154.7,69.4,154.7z"/>
		<path d="M24.6,151.1c1,0,1.8,0.9,1.8,1.9c-0.1,1.1-0.7,1.7-1.8,1.7c-1.1,0-1.7-0.7-1.8-1.8C22.7,151.9,23.6,151.1,24.6,151.1z"/>
		<path d="M84.8,153.1c-0.1,1-0.7,1.6-1.8,1.7c-1,0-1.9-0.8-1.9-1.8c0-1,0.9-1.8,1.9-1.8C84.1,151.2,84.8,152,84.8,153.1z"/>
		<path d="M44.4,157.5c-0.1,0.9-0.7,1.6-1.8,1.7c-1.1,0.1-1.9-0.7-1.9-1.8c0-1.1,0.7-1.7,1.7-1.8C43.5,155.5,44.4,156.4,44.4,157.5z
			"/>
		<path d="M84.8,143.9c-0.1,1.1-0.6,1.8-1.7,1.9c-1,0.1-1.9-0.7-1.9-1.8c0-1,0.8-1.9,1.9-1.8C84.1,142.2,84.7,142.8,84.8,143.9z"/>
		<path d="M71.4,144c0,1-0.9,1.9-1.9,1.8c-1.1-0.1-1.7-0.7-1.7-1.8c0-1.1,0.6-1.7,1.7-1.8C70.5,142.1,71.4,142.9,71.4,144z"/>
		<path d="M56.2,154.7c-1.2,0-2.1-0.8-2-1.8c0.1-1.1,0.7-1.7,1.8-1.8c1-0.1,1.9,0.8,1.8,1.9C57.8,154.1,57.2,154.7,56.2,154.7z"/>
		<path d="M83,141.3c-1,0-1.9-0.9-1.8-1.9c0.1-1.1,0.7-1.7,1.8-1.7c1.1,0,1.7,0.6,1.8,1.7C84.9,140.4,84,141.3,83,141.3z"/>
		<path d="M57.9,144c-0.1,1.1-0.7,1.7-1.8,1.8c-1,0-1.9-0.9-1.8-1.9c0-1,0.9-1.8,2-1.7C57.3,142.3,57.8,142.9,57.9,144z"/>
		<path d="M62.4,130.5c-0.1,1-0.6,1.7-1.7,1.8c-1,0.1-1.9-0.8-2-1.8c0-1,0.9-2,1.9-1.9C61.6,128.7,62.2,129.4,62.4,130.5z"/>
		<path d="M42.5,141.3c-1,0-1.8-0.9-1.7-2c0.1-1.1,0.8-1.7,1.8-1.7c1.1,0,1.7,0.7,1.8,1.8C44.5,140.5,43.5,141.3,42.5,141.3z"/>
		<path d="M44.4,153c0,1-0.9,1.9-1.9,1.8c-1.1-0.1-1.7-0.7-1.7-1.8c0-1.1,0.7-1.7,1.7-1.8C43.6,151.1,44.4,151.9,44.4,153z"/>
		<path d="M44.4,143.9c0,1-0.8,1.9-1.8,1.9c-1.1,0-1.7-0.6-1.8-1.7c0-1.1,0.5-1.8,1.6-1.9C43.5,142.1,44.4,142.9,44.4,143.9z"/>
		<path d="M33.4,132.3c-1.1-0.2-1.6-0.9-1.6-1.9c0-1,1.1-1.8,2-1.7c1,0.1,1.8,1.1,1.6,2.1C35.2,131.7,34.4,132.4,33.4,132.3z"/>
		<path d="M38.1,132.3c-1.1-0.1-1.8-0.8-1.8-1.8c-0.1-1,0.9-1.9,1.9-1.8c1.1,0.1,1.7,0.7,1.8,1.8C40,131.5,39,132.4,38.1,132.3z"/>
		<path d="M51.6,141.3c-1,0-1.9-0.8-1.8-1.9c0.1-1.1,0.7-1.7,1.8-1.7c1.1,0,1.7,0.6,1.8,1.7C53.4,140.4,52.6,141.3,51.6,141.3z"/>
		<path d="M47,137.7c1.1,0.1,1.7,0.6,1.8,1.7c0.1,1-0.7,1.9-1.7,2c-1,0-1.9-0.8-1.9-1.8C45.3,138.3,46,137.8,47,137.7z"/>
		<path d="M44.4,148.5c0,1-0.9,1.9-1.9,1.8c-1.1-0.1-1.7-0.7-1.7-1.8c0-1.1,0.6-1.7,1.7-1.8C43.6,146.6,44.4,147.4,44.4,148.5z"/>
		<path d="M24.7,141.3c-1.2,0-2-0.9-1.9-1.9c0.1-1.1,0.8-1.7,1.8-1.7c1.1,0,1.8,0.8,1.8,1.9C26.3,140.7,25.6,141.2,24.7,141.3z"/>
		<path d="M83.2,150.2c-1.2,0-2.1-0.8-2-1.9c0.1-1.1,0.7-1.7,1.8-1.7c1.1,0,1.9,0.8,1.8,1.9C84.7,149.6,84.1,150.2,83.2,150.2z"/>
		<path d="M62.4,135c-0.1,1.1-0.8,1.7-1.8,1.8c-1,0.1-1.9-0.9-1.9-1.9c0-1,1-1.9,2-1.8C61.7,133.3,62.3,134,62.4,135z"/>
		<path d="M29.2,142.2c1,0.1,1.6,0.7,1.7,1.7c0.1,1-0.8,1.9-1.8,1.9c-1.1,0-1.7-0.7-1.8-1.7C27.2,143,28.1,142.2,29.2,142.2z"/>
		<path d="M29.1,154.7c-1,0-1.9-0.8-1.8-1.9c0.1-1.1,0.7-1.7,1.8-1.8c1,0,1.9,0.8,1.8,1.9C30.9,154,30.1,154.7,29.1,154.7z"/>
		<path d="M48.9,157.6c-0.1,0.9-0.7,1.6-1.8,1.6c-1.1,0.1-1.9-0.8-1.8-1.8c0-1.1,0.7-1.7,1.8-1.8C48.1,155.5,48.9,156.4,48.9,157.6z
			"/>
		<path d="M53.4,157.6c-0.1,1-0.7,1.6-1.8,1.6c-1,0-1.9-0.8-1.8-1.9c0.1-1.1,0.7-1.7,1.8-1.7C52.6,155.5,53.4,156.4,53.4,157.6z"/>
		<path d="M62.4,161.9c-0.1,1.1-0.7,1.7-1.8,1.8c-1,0.1-1.9-0.8-1.9-1.8c0-1,1-1.9,1.9-1.9C61.5,160.1,62.4,161,62.4,161.9z"/>
		<path d="M80.3,157.6c-0.1,0.9-0.6,1.6-1.7,1.7c-1,0.1-1.9-0.8-1.9-1.8c0-1.1,0.7-1.7,1.7-1.8C79.4,155.5,80.3,156.4,80.3,157.6z"
			/>
		<path d="M74,159.2c-1.1-0.1-1.7-0.7-1.7-1.8c0-1,0.8-1.9,1.9-1.8c1,0,1.8,0.9,1.7,2C75.7,158.6,75,159.1,74,159.2z"/>
		<path d="M232.6,156.9c1.1,0.2,1.6,0.9,1.4,1.9c-0.1,1-0.8,1.4-1.8,1.3c-0.9-0.1-1.5-0.8-1.4-1.7
			C230.9,157.4,231.6,156.9,232.6,156.9z"/>
		<path d="M262.4,174.3c-0.2,1.5-0.7,2.1-1.8,2c-1-0.1-1.5-0.7-1.5-1.7c0-1,0.7-1.7,1.7-1.5C261.5,173.3,262,174,262.4,174.3z"/>
		<path d="M262.4,154c-0.1,1.5-0.6,2.1-1.7,2.1c-1,0-1.6-0.6-1.6-1.6c0-1,0.6-1.8,1.6-1.6C261.4,153,261.9,153.7,262.4,154z"/>
		<path d="M246.3,110.1c1-0.8,1.6-1.4,2.2-1.6c1-0.2,1.7,0.6,1.7,1.6c0,1-0.6,1.8-1.7,1.6C247.9,111.5,247.3,110.8,246.3,110.1z"/>
		<path d="M244,164.2c-0.3-0.4-0.9-1-1-1.7c-0.2-1,0.7-1.8,1.6-1.6c0.6,0.1,1.4,0.9,1.5,1.6C246.3,163.6,245.5,164.1,244,164.2z"/>
		<path d="M254.8,154.1c0.6-0.4,1.2-1.1,1.8-1.2c1-0.2,1.8,0.6,1.6,1.6c-0.1,0.6-1,1.5-1.5,1.5c-0.6,0-1.3-0.8-1.9-1.2
			C254.8,154.6,254.8,154.4,254.8,154.1z"/>
		<path d="M254.5,154.9c-0.6,0.4-1.3,1.2-1.9,1.2c-0.6,0-1.4-0.9-1.5-1.5c-0.2-1,0.6-1.8,1.6-1.6c0.7,0.1,1.2,0.8,1.8,1.2
			C254.5,154.4,254.5,154.6,254.5,154.9z"/>
		<path d="M266.6,162.9c-0.6,0.4-1.2,1.1-1.8,1.2c-1,0.2-1.8-0.6-1.6-1.5c0.1-0.6,0.9-1.5,1.5-1.5c0.6,0,1.3,0.8,1.9,1.2
			C266.6,162.5,266.6,162.7,266.6,162.9z"/>
		<path d="M254.3,125.7c0,1.6-0.7,2.3-1.6,2.1c-0.6-0.1-1.4-0.9-1.6-1.5c-0.2-1,0.6-1.7,1.6-1.6
			C253.3,124.8,253.9,125.4,254.3,125.7z"/>
		<path d="M242.7,125.9c0.6-0.4,1.2-1.1,1.8-1.2c1-0.1,1.7,0.5,1.6,1.6c0,1-0.7,1.7-1.6,1.5c-0.7-0.1-1.3-0.8-1.9-1.3
			C242.7,126.3,242.7,126.1,242.7,125.9z"/>
		<path d="M216.7,152.6c0.4,0.6,1.1,1.2,1.2,1.9c0.1,1-0.6,1.7-1.6,1.6c-1.1,0-1.7-0.7-1.5-1.7c0.1-0.7,0.8-1.2,1.3-1.8
			C216.3,152.6,216.5,152.6,216.7,152.6z"/>
		<path d="M266.6,158.9c-0.6,0.4-1.2,1.1-1.9,1.2c-1,0.1-1.7-0.6-1.6-1.6c0-1.1,0.7-1.7,1.7-1.5c0.6,0.1,1.2,0.8,1.8,1.3
			C266.6,158.5,266.6,158.7,266.6,158.9z"/>
		<path d="M245,132.5c0.4,0.6,1.1,1.2,1.2,1.9c0.1,1-0.6,1.7-1.6,1.6c-1,0-1.7-0.7-1.5-1.8c0.2-0.6,0.9-1.2,1.3-1.7
			C244.5,132.4,244.8,132.5,245,132.5z"/>
		<path d="M254.3,109.6c-0.1,1.5-0.7,2.3-1.7,2.1c-0.6-0.1-1.4-0.9-1.5-1.5c-0.2-1,0.6-1.8,1.6-1.6
			C253.3,108.6,253.9,109.3,254.3,109.6z"/>
		<path d="M245,156.7c0.4,0.6,1.1,1.2,1.2,1.9c0.2,1-0.6,1.7-1.6,1.6c-1,0-1.7-0.7-1.5-1.7c0.2-0.6,0.9-1.2,1.3-1.7
			C244.5,156.7,244.8,156.7,245,156.7z"/>
		<path d="M244.3,140.2c-0.5-0.6-1.2-1.1-1.3-1.8c-0.2-1,0.5-1.7,1.5-1.7c1,0,1.8,0.6,1.6,1.6c-0.1,0.7-0.8,1.2-1.2,1.9
			C244.7,140.2,244.5,140.2,244.3,140.2z"/>
		<path d="M249,120.3c0.4,0.6,1.1,1.2,1.2,1.9c0.1,1-0.6,1.7-1.7,1.6c-1-0.1-1.7-0.8-1.5-1.7c0.1-0.6,0.8-1.2,1.3-1.8
			C248.6,120.3,248.8,120.3,249,120.3z"/>
		<path d="M249.1,176.3c-1.5-0.1-2.2-0.6-2.2-1.7c0-1,0.6-1.6,1.5-1.6c1.1,0,1.8,0.6,1.7,1.6C250.1,175.3,249.4,175.9,249.1,176.3z"
			/>
		<path d="M254.5,142.7c-0.6,0.4-1.1,1.1-1.8,1.2c-1,0.2-1.7-0.5-1.7-1.6c0-1,0.7-1.8,1.7-1.6c0.7,0.1,1.2,0.8,1.8,1.2
			C254.5,142.3,254.5,142.5,254.5,142.7z"/>
		<path d="M256.3,144.3c-0.4-0.6-1.1-1.2-1.2-1.8c-0.2-1,0.6-1.8,1.6-1.6c0.6,0.1,1.5,0.9,1.5,1.5c0,0.6-0.8,1.3-1.2,1.9
			C256.8,144.3,256.6,144.3,256.3,144.3z"/>
		<path d="M262.6,142.8c-0.6,0.4-1.2,1.1-1.8,1.2c-1,0.2-1.7-0.6-1.6-1.6c0-0.9,0.6-1.7,1.6-1.5c0.7,0.1,1.3,0.8,1.9,1.3
			C262.6,142.3,262.6,142.5,262.6,142.8z"/>
		<path d="M266.4,171.1c-0.4,0.3-1,1-1.6,1.1c-1,0.2-1.7-0.5-1.7-1.6c0-1,0.6-1.6,1.6-1.6C265.7,169,266.3,169.6,266.4,171.1z"/>
		<path d="M254.2,171.3c-0.4,0.3-1,0.9-1.7,1c-1,0.1-1.8-0.7-1.5-1.7c0.2-0.6,1-1.4,1.6-1.5C253.7,168.9,254.3,169.7,254.2,171.3z"
			/>
		<path d="M242.9,171.1c0.1-1.5,0.7-2.1,1.7-2.1c0.9,0,1.6,0.6,1.5,1.6c0,1.1-0.7,1.7-1.7,1.6C243.8,172.1,243.3,171.4,242.9,171.1z
			"/>
		<path d="M222.5,170.3c0.6-0.4,1.2-1.1,1.8-1.2c1-0.1,1.7,0.6,1.7,1.6c0,1-0.7,1.7-1.7,1.5c-0.6-0.1-1.2-0.8-1.8-1.3
			C222.5,170.7,222.5,170.5,222.5,170.3z"/>
		<path d="M229,164.2c-1.6,0-2.2-0.6-2.2-1.7c0-0.9,0.6-1.6,1.6-1.6c1,0,1.8,0.6,1.6,1.6C229.9,163.2,229.2,163.8,229,164.2z"/>
		<path d="M273.2,164.8c0.4,0.6,1.1,1.2,1.2,1.8c0.2,1-0.6,1.8-1.6,1.6c-0.6-0.1-1.5-1-1.5-1.5c0-0.6,0.8-1.3,1.2-1.9
			C272.7,164.8,272.9,164.8,273.2,164.8z"/>
		<path d="M265.1,164.8c0.4,0.6,1.1,1.2,1.2,1.8c0.2,1-0.6,1.7-1.6,1.7c-1,0-1.8-0.7-1.6-1.7c0.1-0.7,0.8-1.2,1.2-1.8
			C264.6,164.8,264.9,164.8,265.1,164.8z"/>
		<path d="M262.6,162.9c-0.6,0.4-1.1,1.1-1.8,1.2c-1,0.2-1.7-0.5-1.7-1.5c0-1,0.7-1.8,1.7-1.6c0.7,0.1,1.2,0.8,1.8,1.2
			C262.6,162.5,262.6,162.7,262.6,162.9z"/>
		<path d="M256.3,164.4c-0.4-0.6-1-1.2-1.2-1.8c-0.2-1,0.6-1.8,1.6-1.6c0.6,0.1,1.5,1,1.5,1.6c0,0.6-0.8,1.3-1.2,1.9
			C256.7,164.4,256.5,164.4,256.3,164.4z"/>
		<path d="M222.2,163c-0.6,0.4-1.2,1-1.8,1.1c-1,0.2-1.8-0.6-1.6-1.6c0.1-0.6,1-1.5,1.6-1.5c0.6,0,1.3,0.8,1.9,1.2
			C222.2,162.5,222.2,162.7,222.2,163z"/>
		<path d="M268.3,164.4c-0.4-0.6-1-1.2-1.1-1.9c-0.1-1,0.7-1.8,1.6-1.6c0.6,0.1,1.5,1,1.5,1.6c0,0.6-0.8,1.2-1.3,1.9
			C268.8,164.4,268.6,164.4,268.3,164.4z"/>
		<path d="M244.9,120.3c0.4,0.6,1.3,1.3,1.2,1.9c0,0.6-0.9,1.4-1.5,1.6c-1,0.2-1.8-0.6-1.6-1.6c0.1-0.7,0.8-1.2,1.2-1.8
			C244.4,120.3,244.6,120.3,244.9,120.3z"/>
		<path d="M248.1,164.2c-0.3-0.4-0.9-1-1-1.6c-0.2-1,0.6-1.8,1.6-1.6c0.6,0.1,1.4,0.9,1.6,1.5C250.4,163.5,249.6,164.1,248.1,164.2z
			"/>
		<path d="M234.3,162.9c-0.6,0.4-1.1,1.1-1.8,1.2c-1,0.2-1.7-0.5-1.7-1.5c0-1,0.7-1.8,1.7-1.6c0.7,0.1,1.2,0.8,1.8,1.2
			C234.3,162.5,234.3,162.7,234.3,162.9z"/>
		<path d="M234.3,110.4c-0.6,0.4-1.2,1.1-1.9,1.2c-0.9,0.2-1.6-0.6-1.6-1.5c0-1,0.6-1.8,1.7-1.6c0.7,0.1,1.2,0.8,1.8,1.2
			C234.3,109.9,234.3,110.2,234.3,110.4z"/>
		<path d="M242.4,110.4c-0.6,0.4-1.1,1.1-1.8,1.2c-1,0.2-1.7-0.6-1.7-1.6c0-1,0.7-1.8,1.7-1.6c0.7,0.1,1.2,0.8,1.8,1.2
			C242.4,110,242.4,110.2,242.4,110.4z"/>
		<path d="M254.5,118.5c-0.6,0.4-1.2,1.1-1.8,1.2c-1,0.2-1.7-0.5-1.7-1.6c0-1,0.7-1.7,1.7-1.6c0.7,0.1,1.2,0.8,1.8,1.3
			C254.5,118.1,254.5,118.3,254.5,118.5z"/>
		<path d="M242.7,113.8c0.6-0.4,1.1-1.1,1.8-1.3c1-0.2,1.7,0.5,1.7,1.5c0,1.1-0.7,1.8-1.6,1.6c-0.7-0.1-1.2-0.8-1.8-1.2
			C242.7,114.3,242.7,114.1,242.7,113.8z"/>
		<path d="M236.1,120c-0.4-0.6-1-1.2-1.1-1.8c-0.2-1,0.7-1.8,1.6-1.6c0.6,0.1,1.5,1,1.5,1.6c0,0.6-0.8,1.3-1.2,1.9
			C236.6,120,236.3,120,236.1,120z"/>
		<path d="M242.2,186.3c-0.1,1.5-0.6,2.2-1.7,2.2c-1,0-1.6-0.6-1.6-1.5c0-1,0.6-1.8,1.6-1.6C241.2,185.3,241.7,186,242.2,186.3z"/>
		<path d="M256.3,184.6c-0.4-0.6-1.1-1.1-1.2-1.8c-0.2-1,0.6-1.7,1.6-1.7c1,0,1.8,0.7,1.6,1.7c-0.1,0.7-0.8,1.2-1.3,1.8
			C256.8,184.6,256.5,184.6,256.3,184.6z"/>
		<path d="M244.3,184.6c-0.4-0.6-1.1-1.1-1.3-1.8c-0.2-1,0.5-1.7,1.5-1.7c1,0,1.8,0.6,1.6,1.6c-0.1,0.7-0.8,1.2-1.2,1.8
			C244.7,184.6,244.5,184.6,244.3,184.6z"/>
		<path d="M273.2,176.9c0.4,0.6,1,1.2,1.2,1.8c0.2,1-0.6,1.8-1.6,1.6c-0.6-0.1-1.5-1-1.5-1.5c0-0.6,0.8-1.3,1.2-1.9
			C272.7,176.9,273,176.9,273.2,176.9z"/>
		<path d="M257.1,176.9c0.4,0.6,1.1,1.2,1.2,1.8c0.1,1-0.6,1.7-1.6,1.6c-1,0-1.7-0.7-1.5-1.7c0.1-0.6,0.8-1.2,1.3-1.8
			C256.6,176.9,256.8,176.9,257.1,176.9z"/>
		<path d="M254.5,179c-0.6,0.5-1.3,1.3-1.9,1.2c-0.6,0-1.4-0.9-1.6-1.5c-0.2-1,0.5-1.8,1.6-1.6c0.7,0.1,1.2,0.7,1.8,1.1
			C254.5,178.6,254.5,178.8,254.5,179z"/>
		<path d="M268.5,176.6c-0.4-0.6-1.1-1.1-1.2-1.8c-0.2-1,0.5-1.7,1.5-1.7c1.1,0,1.7,0.7,1.6,1.6c-0.1,0.7-0.8,1.2-1.2,1.8
			C268.9,176.6,268.7,176.6,268.5,176.6z"/>
		<path d="M264.4,176.6c-0.4-0.6-1.2-1.3-1.2-1.9c0-0.6,0.9-1.4,1.5-1.5c1-0.2,1.8,0.6,1.6,1.6c-0.1,0.7-0.8,1.2-1.2,1.8
			C264.9,176.6,264.6,176.6,264.4,176.6z"/>
		<path d="M215.9,176.6c-0.4-0.6-1.1-1.2-1.2-1.8c-0.2-1,0.6-1.8,1.6-1.6c0.6,0.1,1.5,1,1.5,1.5c0,0.6-0.8,1.3-1.2,1.9
			C216.4,176.6,216.2,176.6,215.9,176.6z"/>
		<path d="M274.7,170.9c-0.6,0.4-1.1,1.1-1.8,1.3c-1,0.2-1.7-0.5-1.7-1.5c0-1,0.7-1.8,1.6-1.6c0.7,0.1,1.2,0.8,1.8,1.2
			C274.7,170.5,274.7,170.7,274.7,170.9z"/>
		<path d="M254.8,170.3c0.6-0.4,1.2-1.1,1.8-1.2c1-0.1,1.7,0.6,1.7,1.6c0,1-0.7,1.7-1.7,1.5c-0.6-0.1-1.2-0.8-1.8-1.3
			C254.8,170.7,254.8,170.5,254.8,170.3z"/>
		<path d="M222,170.1c0,1.6-0.6,2.3-1.6,2.1c-0.6-0.1-1.4-0.9-1.6-1.5c-0.2-1,0.6-1.8,1.6-1.6C221,169.2,221.6,169.8,222,170.1z"/>
		<path d="M275.2,167.2c0.1-1.5,0.6-2.1,1.7-2.1c1,0,1.6,0.6,1.6,1.5c0,1-0.6,1.8-1.6,1.6C276.2,168.1,275.6,167.4,275.2,167.2z"/>
		<path d="M269.1,164.8c0.4,0.6,1.1,1.2,1.2,1.8c0.2,1-0.6,1.7-1.6,1.7c-1,0-1.7-0.7-1.5-1.7c0.1-0.7,0.8-1.2,1.2-1.8
			C268.7,164.8,268.9,164.8,269.1,164.8z"/>
		<path d="M262.4,167.1c-0.4,0.3-1,1-1.7,1.1c-0.9,0.2-1.6-0.6-1.6-1.5c0-0.9,0.5-1.6,1.5-1.7C261.6,165,262.2,165.5,262.4,167.1z"
			/>
		<path d="M248.1,165c1.6,0.1,2.2,0.7,2.2,1.7c0,0.9-0.6,1.6-1.6,1.6c-1,0-1.8-0.7-1.6-1.7C247.1,165.9,247.8,165.4,248.1,165z"/>
		<path d="M232.9,164.8c0.4,0.6,1,1.2,1.1,1.9c0.1,1-0.6,1.6-1.6,1.6c-1,0-1.7-0.7-1.5-1.6c0.1-0.7,0.8-1.3,1.3-1.9
			C232.4,164.8,232.6,164.8,232.9,164.8z"/>
		<path d="M228.5,165c1,0.1,1.6,0.7,1.6,1.7c0,1-0.7,1.5-1.6,1.5c-1,0-1.6-0.6-1.6-1.6C226.8,165.7,227.4,165,228.5,165z"/>
		<path d="M222.5,166.3c0.6-0.4,1.1-1.1,1.8-1.3c1-0.2,1.7,0.5,1.7,1.5c0,1-0.7,1.8-1.6,1.6c-0.7-0.1-1.2-0.8-1.8-1.2
			C222.5,166.8,222.5,166.5,222.5,166.3z"/>
		<path d="M216.6,164.7c0.4,0.6,1.3,1.3,1.2,1.9c0,0.6-0.9,1.4-1.5,1.5c-1,0.2-1.7-0.6-1.6-1.6c0.1-0.7,0.8-1.2,1.2-1.8
			C216.1,164.8,216.4,164.8,216.6,164.7z"/>
		<path d="M256.4,120c-0.4-0.6-1.1-1.1-1.3-1.7c-0.2-1,0.5-1.7,1.5-1.7c1,0,1.8,0.6,1.7,1.6c-0.1,0.7-0.8,1.2-1.2,1.8
			C256.9,120,256.6,120,256.4,120z"/>
		<path d="M234.3,122.5c-0.6,0.4-1.1,1.1-1.8,1.3c-1,0.2-1.7-0.5-1.7-1.6c0-1,0.6-1.8,1.7-1.6c0.7,0.1,1.2,0.8,1.8,1.2
			C234.3,122.1,234.3,122.3,234.3,122.5z"/>
		<path d="M272.5,164.4c-0.4-0.6-1.3-1.3-1.2-1.9c0-0.6,0.9-1.4,1.5-1.6c1-0.2,1.8,0.6,1.6,1.6c-0.1,0.7-0.8,1.2-1.2,1.8
			C273,164.4,272.7,164.4,272.5,164.4z"/>
		<path d="M266.9,154.2c0.6-0.5,1.1-1.2,1.8-1.3c1-0.2,1.7,0.5,1.7,1.5c0,1-0.6,1.8-1.6,1.6c-0.7-0.1-1.2-0.8-1.8-1.2
			C266.9,154.7,266.9,154.5,266.9,154.2z"/>
		<path d="M266.6,154.9c-0.7,0.4-1.4,1.2-2,1.1c-0.6-0.1-1.4-1-1.5-1.6c-0.2-1,0.7-1.7,1.7-1.5c0.7,0.1,1.2,0.8,1.8,1.3
			C266.6,154.4,266.6,154.7,266.6,154.9z"/>
		<path d="M252.3,140.2c-0.4-0.6-1.1-1.2-1.2-1.8c-0.2-1,0.6-1.7,1.6-1.7c1,0,1.8,0.7,1.5,1.7c-0.1,0.7-0.8,1.2-1.3,1.8
			C252.7,140.2,252.5,140.2,252.3,140.2z"/>
		<path d="M234.3,154.8c-0.6,0.4-1.3,1.2-1.9,1.2c-0.6,0-1.4-0.9-1.5-1.5c-0.2-1,0.6-1.7,1.6-1.6c0.7,0.1,1.2,0.8,1.8,1.2
			C234.3,154.4,234.3,154.6,234.3,154.8z"/>
		<path d="M228.7,152.6c0.4,0.6,1.1,1.1,1.2,1.8c0.2,1-0.5,1.7-1.6,1.7c-1.1,0-1.7-0.7-1.6-1.7c0.1-0.7,0.8-1.2,1.2-1.8
			C228.3,152.6,228.5,152.6,228.7,152.6z"/>
		<path d="M222.5,154.2c0.6-0.4,1.2-1.1,1.8-1.2c1-0.2,1.7,0.6,1.7,1.6c0,1-0.7,1.8-1.7,1.6c-0.7-0.1-1.2-0.8-1.8-1.3
			C222.5,154.6,222.5,154.4,222.5,154.2z"/>
		<path d="M222.2,154.9c-0.6,0.4-1.2,1.1-1.8,1.2c-1,0.1-1.7-0.6-1.6-1.6c0-1,0.7-1.7,1.7-1.5c0.6,0.1,1.2,0.8,1.8,1.3
			C222.2,154.5,222.2,154.7,222.2,154.9z"/>
		<path d="M266.6,150.8c-0.6,0.4-1.2,1.1-1.8,1.2c-1,0.2-1.7-0.5-1.7-1.6c0-1,0.7-1.7,1.6-1.6c0.7,0.1,1.3,0.8,1.9,1.2
			C266.6,150.3,266.6,150.6,266.6,150.8z"/>
		<path d="M256.3,140.2c-0.4-0.6-1.1-1.1-1.2-1.8c-0.2-1,0.5-1.7,1.5-1.7c1,0,1.8,0.7,1.6,1.7c-0.1,0.7-0.8,1.2-1.2,1.8
			C256.8,140.2,256.6,140.2,256.3,140.2z"/>
		<path d="M222.5,142c0.6-0.4,1.2-1.1,1.8-1.2c1-0.2,1.7,0.6,1.7,1.6c0,1-0.7,1.7-1.7,1.5c-0.7-0.1-1.2-0.8-1.8-1.3
			C222.5,142.5,222.5,142.2,222.5,142z"/>
		<path d="M254.5,150.8c-0.6,0.4-1.2,1.1-1.8,1.2c-1,0.2-1.7-0.5-1.7-1.6c0-1,0.7-1.7,1.7-1.6c0.7,0.1,1.2,0.8,1.8,1.3
			C254.5,150.4,254.5,150.6,254.5,150.8z"/>
		<path d="M228.1,144.3c-0.5-0.6-1.2-1.2-1.3-1.9c-0.2-0.9,0.5-1.6,1.5-1.6c1.1,0,1.8,0.6,1.7,1.6c-0.1,0.7-0.8,1.2-1.2,1.9
			C228.6,144.2,228.4,144.3,228.1,144.3z"/>
		<path d="M234.3,142.7c-0.6,0.4-1.1,1.1-1.8,1.3c-1,0.2-1.7-0.5-1.7-1.5c0-1,0.6-1.8,1.6-1.6c0.7,0.1,1.2,0.8,1.8,1.2
			C234.3,142.2,234.3,142.5,234.3,142.7z"/>
		<path d="M224.1,152.3c-0.4-0.6-1.1-1.1-1.3-1.8c-0.2-1,0.5-1.7,1.5-1.7c1,0,1.8,0.6,1.6,1.6c-0.1,0.7-0.8,1.2-1.2,1.8
			C224.6,152.3,224.3,152.3,224.1,152.3z"/>
		<path d="M248.2,144.2c-0.4-0.6-1.1-1.2-1.2-1.9c-0.1-1,0.6-1.6,1.6-1.6c1,0,1.7,0.7,1.5,1.6c-0.1,0.7-0.8,1.3-1.3,1.9
			C248.6,144.3,248.4,144.2,248.2,144.2z"/>
		<path d="M222.5,146c0.6-0.4,1.2-1,1.8-1.1c1-0.1,1.8,0.6,1.6,1.6c-0.1,0.6-1,1.5-1.6,1.5c-0.6,0-1.3-0.8-1.9-1.2
			C222.5,146.5,222.5,146.2,222.5,146z"/>
		<path d="M253,144.6c0.4,0.6,1.1,1.2,1.2,1.8c0.2,1-0.6,1.8-1.6,1.6c-0.6-0.1-1.5-1-1.5-1.5c0-0.6,0.8-1.3,1.2-1.9
			C252.5,144.6,252.8,144.6,253,144.6z"/>
		<path d="M242.7,146.1c0.6-0.4,1.1-1.1,1.8-1.3c1-0.2,1.7,0.5,1.7,1.5c0,1.1-0.7,1.8-1.6,1.6c-0.7-0.1-1.2-0.8-1.8-1.2
			C242.7,146.6,242.7,146.4,242.7,146.1z"/>
		<path d="M257,156.7c0.4,0.6,1.1,1.2,1.2,1.8c0.2,1-0.6,1.7-1.6,1.7c-1,0-1.8-0.7-1.5-1.7c0.1-0.7,0.8-1.2,1.2-1.8
			C256.6,156.7,256.8,156.7,257,156.7z"/>
		<path d="M234.6,125.9c0.6-0.4,1.2-1.1,1.8-1.2c1-0.2,1.8,0.6,1.6,1.6c-0.1,0.6-1,1.5-1.5,1.5c-0.6,0-1.3-0.8-1.9-1.2
			C234.6,126.3,234.6,126.1,234.6,125.9z"/>
		<path d="M242.4,130.7c-0.6,0.4-1.2,1-1.8,1.1c-1,0.2-1.8-0.7-1.6-1.6c0.1-0.6,1-1.5,1.6-1.5c0.6,0,1.3,0.8,1.9,1.2
			C242.4,130.2,242.4,130.4,242.4,130.7z"/>
		<path d="M244.1,132.1c-0.4-0.6-1.1-1.2-1.1-1.9c-0.1-1,0.6-1.6,1.6-1.6c0.9,0,1.7,0.7,1.5,1.6c-0.1,0.7-0.8,1.3-1.3,1.9
			C244.6,132.1,244.4,132.1,244.1,132.1z"/>
		<path d="M248.3,132.1c-0.4-0.6-1.1-1.1-1.2-1.8c-0.2-1,0.5-1.7,1.5-1.7c1,0,1.7,0.7,1.6,1.7c-0.1,0.7-0.8,1.2-1.2,1.8
			C248.7,132.1,248.5,132.1,248.3,132.1z"/>
		<path d="M254.5,122.6c-0.6,0.4-1.2,1.1-1.8,1.2c-1,0.1-1.7-0.6-1.6-1.6c0-1,0.7-1.7,1.7-1.5c0.7,0.1,1.2,0.8,1.8,1.3
			C254.5,122.1,254.5,122.4,254.5,122.6z"/>
		<path d="M252.3,156.8c1.5,0.3,2,0.9,1.9,2c-0.1,1-0.8,1.5-1.8,1.3c-0.9-0.1-1.6-0.8-1.4-1.7C251.2,157.8,252,157.2,252.3,156.8z"
			/>
		<path d="M222,158c0,1.6-0.7,2.3-1.6,2.1c-0.6-0.1-1.4-0.9-1.6-1.5c-0.2-1,0.6-1.7,1.6-1.6C221,157.1,221.6,157.7,222,158z"/>
		<path d="M224.7,156.7c0.4,0.6,1.1,1.2,1.2,1.8c0.2,1-0.6,1.7-1.6,1.7c-1,0-1.8-0.7-1.5-1.7c0.1-0.7,0.8-1.2,1.3-1.8
			C224.3,156.7,224.5,156.7,224.7,156.7z"/>
		<path d="M246.7,133.9c0.6-0.4,1.2-1.1,1.8-1.2c1-0.2,1.8,0.6,1.6,1.6c-0.1,0.6-1,1.5-1.5,1.5c-0.6,0-1.3-0.8-1.9-1.2
			C246.7,134.4,246.7,134.2,246.7,133.9z"/>
		<path d="M257.1,176.4c-1.5-0.2-2.1-0.8-2-1.8c0.1-1,0.8-1.7,1.6-1.4c0.6,0.2,1.5,1,1.5,1.6C258.2,175.3,257.4,175.9,257.1,176.4z"
			/>
		<path d="M254.5,175c-0.6,0.4-1.1,1.1-1.8,1.2c-1,0.2-1.7-0.6-1.7-1.6c0-1,0.7-1.8,1.7-1.6c0.7,0.1,1.2,0.8,1.8,1.2
			C254.5,174.6,254.5,174.8,254.5,175z"/>
		<path d="M246.7,117.8c0.6-0.4,1.2-1.1,1.8-1.2c1-0.1,1.7,0.6,1.6,1.6c0,1-0.7,1.7-1.7,1.5c-0.7-0.2-1.2-0.8-1.8-1.3
			C246.7,118.2,246.7,118,246.7,117.8z"/>
		<path d="M240.1,176.6c-0.4-0.6-1.1-1.2-1.2-1.8c-0.1-1,0.6-1.7,1.6-1.6c1,0,1.7,0.7,1.5,1.7c-0.1,0.7-0.8,1.2-1.3,1.8
			C240.6,176.6,240.4,176.6,240.1,176.6z"/>
		<path d="M222.2,175c-0.6,0.4-1.1,1.1-1.8,1.3c-1,0.2-1.7-0.5-1.7-1.5c0-1,0.6-1.8,1.7-1.6c0.7,0.1,1.2,0.8,1.8,1.2
			C222.2,174.6,222.2,174.8,222.2,175z"/>
		<path d="M244.1,119.8c-0.3-0.4-1-1-1.1-1.6c-0.2-1,0.6-1.8,1.6-1.6c0.6,0.1,1.4,0.9,1.6,1.5C246.3,119.1,245.6,119.7,244.1,119.8z
			"/>
		<path d="M242.4,118.4c-0.6,0.4-1.1,1.1-1.7,1.3c-1,0.2-1.7-0.5-1.7-1.5c0-1,0.6-1.8,1.6-1.7c0.7,0.1,1.2,0.8,1.8,1.2
			C242.4,118,242.4,118.2,242.4,118.4z"/>
		<path d="M234.3,146.8c-0.6,0.4-1.2,1.1-1.8,1.2c-1,0.2-1.7-0.5-1.7-1.6c0-1,0.7-1.7,1.7-1.5c0.7,0.1,1.2,0.8,1.8,1.2
			C234.3,146.3,234.3,146.5,234.3,146.8z"/>
		<path d="M234.6,146.2c0.6-0.4,1.1-1.1,1.7-1.3c1-0.2,1.7,0.5,1.7,1.5c0,1-0.6,1.8-1.6,1.6c-0.7-0.1-1.2-0.8-1.8-1.2
			C234.6,146.6,234.6,146.4,234.6,146.2z"/>
		<path d="M246.4,142.8c-0.7,0.4-1.3,1.1-2,1.2c-0.9,0.1-1.5-0.6-1.5-1.6c0-1,0.6-1.7,1.6-1.5c0.7,0.1,1.3,0.8,1.9,1.2
			C246.4,142.3,246.4,142.5,246.4,142.8z"/>
		<path d="M242.7,109.6c0.6-0.4,1.2-1,1.9-1.1c1-0.1,1.6,0.6,1.6,1.7c-0.1,1-0.8,1.7-1.8,1.5c-0.6-0.2-1.2-0.9-1.7-1.3
			C242.7,110.1,242.7,109.8,242.7,109.6z"/>
		<path d="M242.7,178.4c0.6-0.4,1.2-1.1,1.8-1.2c1-0.2,1.8,0.6,1.6,1.6c-0.1,0.6-1,1.5-1.5,1.5c-0.6,0-1.3-0.8-1.9-1.2
			C242.7,178.9,242.7,178.6,242.7,178.4z"/>
		<path d="M246.7,178.4c0.6-0.4,1.2-1.1,1.8-1.2c1-0.2,1.8,0.6,1.6,1.6c-0.1,0.6-1,1.5-1.5,1.5c-0.6,0-1.3-0.8-1.9-1.2
			C246.7,178.8,246.7,178.6,246.7,178.4z"/>
		<path d="M240.8,132.4c0.4,0.6,1.1,1.1,1.3,1.8c0.2,1-0.5,1.7-1.5,1.7c-1,0-1.8-0.7-1.6-1.6c0.1-0.7,0.8-1.2,1.2-1.8
			C240.4,132.5,240.6,132.4,240.8,132.4z"/>
		<path d="M261,176.9c0.4,0.6,1.1,1.1,1.3,1.8c0.2,1-0.5,1.7-1.5,1.7c-1,0-1.8-0.7-1.6-1.6c0.1-0.7,0.8-1.2,1.2-1.8
			C260.5,176.9,260.8,176.9,261,176.9z"/>
		<path d="M266.6,179.1c-0.6,0.4-1.3,1.2-1.9,1.2c-0.6,0-1.4-0.9-1.5-1.5c-0.2-1,0.6-1.7,1.6-1.6c0.7,0.1,1.2,0.8,1.8,1.2
			C266.6,178.6,266.6,178.8,266.6,179.1z"/>
		<path d="M266.9,178.5c0.6-0.4,1.1-1.1,1.8-1.3c1-0.2,1.7,0.5,1.7,1.5c0,1-0.6,1.8-1.6,1.6c-0.7-0.1-1.2-0.8-1.8-1.2
			C266.9,178.9,266.9,178.7,266.9,178.5z"/>
		<path d="M234.3,114.5c-0.6,0.4-1.2,1.1-1.9,1.2c-1,0.1-1.7-0.6-1.6-1.6c0-1,0.7-1.7,1.7-1.5c0.6,0.1,1.2,0.8,1.8,1.3
			C234.3,114.1,234.3,114.3,234.3,114.5z"/>
		<path d="M236.2,132.1c-0.4-0.6-1.1-1.1-1.2-1.8c-0.2-1,0.5-1.7,1.5-1.7c1,0,1.8,0.7,1.6,1.7c-0.1,0.7-0.8,1.2-1.2,1.8
			C236.6,132.1,236.4,132.1,236.2,132.1z"/>
		<path d="M236.2,140.2c-0.5-0.6-1.1-1.1-1.3-1.8c-0.2-1,0.5-1.7,1.5-1.7c1,0,1.8,0.6,1.6,1.6c-0.1,0.7-0.8,1.2-1.2,1.8
			C236.7,140.2,236.5,140.2,236.2,140.2z"/>
		<path d="M256.3,152.3c-0.4-0.6-1.1-1.2-1.2-1.8c-0.2-1,0.6-1.8,1.6-1.6c0.6,0.1,1.5,1,1.5,1.5c0,0.6-0.8,1.3-1.2,1.9
			C256.7,152.3,256.5,152.3,256.3,152.3z"/>
		<path d="M254.8,121.8c0.6-0.4,1.2-1.1,1.8-1.2c1-0.2,1.8,0.6,1.6,1.6c-0.1,0.6-1,1.5-1.5,1.5c-0.6,0-1.3-0.8-1.9-1.2
			C254.8,122.3,254.8,122,254.8,121.8z"/>
		<path d="M222.2,167c-0.6,0.4-1.1,1.1-1.8,1.2c-1,0.2-1.7-0.6-1.7-1.6c0-1,0.7-1.8,1.7-1.6c0.7,0.1,1.2,0.8,1.8,1.2
			C222.2,166.5,222.2,166.7,222.2,167z"/>
		<path d="M224,164.4c-0.4-0.6-1.1-1.2-1.2-1.8c-0.2-1,0.6-1.8,1.6-1.6c0.6,0.1,1.5,1,1.5,1.5c0,0.6-0.8,1.3-1.2,1.9
			C224.5,164.4,224.2,164.4,224,164.4z"/>
		<path d="M236.1,164.4c-0.4-0.6-1.1-1.2-1.2-1.8c-0.2-1,0.5-1.7,1.6-1.7c1,0,1.7,0.7,1.6,1.7c-0.1,0.7-0.8,1.2-1.3,1.8
			C236.6,164.4,236.4,164.4,236.1,164.4z"/>
		<path d="M256.9,144.6c0.5,0.6,1.3,1.3,1.3,1.9c0,0.6-0.9,1.4-1.5,1.6c-0.9,0.2-1.8-0.5-1.6-1.6c0.1-0.7,0.7-1.2,1.1-1.9
			C256.5,144.6,256.7,144.6,256.9,144.6z"/>
		<path d="M234.6,121.8c0.6-0.4,1.2-1.1,1.8-1.2c1-0.2,1.8,0.6,1.6,1.6c-0.1,0.6-1,1.5-1.5,1.5c-0.6,0-1.3-0.8-1.9-1.2
			C234.6,122.3,234.6,122.1,234.6,121.8z"/>
		<path d="M242.4,122.6c-0.6,0.4-1.2,1.1-1.9,1.2c-1,0.1-1.7-0.6-1.6-1.6c0-1,0.7-1.7,1.7-1.5c0.6,0.2,1.2,0.9,1.7,1.3
			C242.4,122.2,242.4,122.4,242.4,122.6z"/>
		<path d="M236.1,152.3c-0.4-0.6-1-1.2-1.1-1.8c-0.2-1,0.7-1.8,1.6-1.6c0.6,0.1,1.5,1,1.5,1.6c0,0.6-0.8,1.3-1.2,1.9
			C236.6,152.3,236.3,152.3,236.1,152.3z"/>
		<path d="M222.2,150.8c-0.6,0.4-1.1,1.1-1.8,1.3c-1,0.2-1.7-0.5-1.7-1.5c0-1,0.7-1.8,1.6-1.6c0.7,0.1,1.2,0.8,1.8,1.2
			C222.2,150.3,222.2,150.5,222.2,150.8z"/>
		<path d="M234.3,150.9c-0.6,0.4-1.2,1-1.9,1.1c-1,0.1-1.8-0.6-1.6-1.6c0.1-0.6,1-1.5,1.6-1.5c0.6,0,1.3,0.8,1.9,1.3
			C234.3,150.4,234.3,150.6,234.3,150.9z"/>
		<path d="M234.6,158.2c0.6-0.4,1.2-1.1,1.8-1.2c1-0.2,1.8,0.6,1.6,1.6c-0.1,0.6-1,1.5-1.5,1.5c-0.6,0-1.3-0.8-1.9-1.2
			C234.6,158.6,234.6,158.4,234.6,158.2z"/>
		<path d="M276.5,164.4c-0.4-0.6-1.1-1.1-1.2-1.8c-0.2-1,0.5-1.7,1.5-1.7c1,0,1.8,0.7,1.6,1.7c-0.1,0.7-0.8,1.2-1.2,1.8
			C277,164.4,276.8,164.4,276.5,164.4z"/>
		<path d="M262.6,150.8c-0.6,0.4-1.1,1.1-1.8,1.2c-1,0.2-1.7-0.5-1.7-1.5c0-1,0.7-1.8,1.7-1.6c0.7,0.1,1.2,0.8,1.8,1.2
			C262.6,150.3,262.6,150.6,262.6,150.8z"/>
		<path d="M254.5,163c-0.6,0.4-1.2,1.1-1.8,1.2c-1,0.2-1.8-0.6-1.6-1.6c0.1-0.6,1-1.5,1.6-1.5c0.6,0,1.3,0.8,1.9,1.2
			C254.5,162.5,254.5,162.7,254.5,163z"/>
		<path d="M242.4,183.1c-0.6,0.4-1.1,1.1-1.8,1.2c-1,0.2-1.7-0.5-1.7-1.5c0-1,0.7-1.7,1.7-1.6c0.7,0.1,1.2,0.8,1.8,1.2
			C242.4,182.7,242.4,182.9,242.4,183.1z"/>
		<path d="M242.1,125.7c0,1.6-0.7,2.3-1.6,2.1c-0.6-0.1-1.4-0.9-1.6-1.5c-0.2-1,0.6-1.8,1.6-1.6
			C241.2,124.7,241.7,125.4,242.1,125.7z"/>
		<path d="M240.9,112.3c0.4,0.6,1.1,1.1,1.2,1.8c0.2,1-0.5,1.7-1.6,1.7c-1,0-1.7-0.7-1.6-1.7c0.1-0.7,0.8-1.2,1.3-1.8
			C240.4,112.3,240.6,112.3,240.9,112.3z"/>
		<path d="M254.5,134.7c-0.6,0.4-1.2,1.1-1.8,1.2c-1,0.1-1.7-0.6-1.6-1.6c0-1,0.7-1.7,1.7-1.5c0.7,0.1,1.2,0.8,1.8,1.3
			C254.5,134.3,254.5,134.5,254.5,134.7z"/>
		<path d="M248.1,152.3c-0.4-0.6-1-1.2-1-1.9c-0.1-1,0.7-1.7,1.7-1.5c0.6,0.2,1.4,1.1,1.4,1.6c0,0.6-0.9,1.2-1.3,1.8
			C248.5,152.3,248.3,152.3,248.1,152.3z"/>
		<path d="M253,164.8c0.4,0.6,1.1,1.1,1.2,1.8c0.2,1-0.5,1.7-1.5,1.7c-1,0-1.8-0.7-1.6-1.7c0.1-0.7,0.8-1.2,1.2-1.8
			C252.5,164.8,252.7,164.8,253,164.8z"/>
		<path d="M254.9,166c0.6-0.3,1.3-0.9,1.9-1c1-0.1,1.7,0.8,1.4,1.7c-0.2,0.6-1.1,1.4-1.7,1.3c-0.6,0-1.2-0.9-1.8-1.4
			C254.8,166.5,254.8,166.3,254.9,166z"/>
		<path d="M229,152.1c-1.6,0-2.3-0.7-2.1-1.6c0.1-0.6,0.9-1.4,1.5-1.6c1-0.2,1.8,0.6,1.6,1.6C229.9,151.1,229.2,151.7,229,152.1z"/>
		<path d="M263,146.5c-1.1,0.7-1.6,1.4-2.3,1.5c-1,0.1-1.7-0.6-1.6-1.6c0-1,0.7-1.7,1.7-1.5C261.5,145,262,145.7,263,146.5z"/>
		<path d="M230.7,146.5c-1,0.8-1.6,1.5-2.3,1.6c-1,0.2-1.7-0.6-1.6-1.6c0-1,0.7-1.7,1.7-1.5C229.2,145,229.7,145.7,230.7,146.5z"/>
		<path d="M242.1,170.1c0,1.6-0.7,2.3-1.6,2.1c-0.6-0.1-1.4-0.9-1.6-1.5c-0.2-1,0.6-1.8,1.6-1.6
			C241.2,169.2,241.8,169.8,242.1,170.1z"/>
		<path d="M254.5,130.6c-0.6,0.4-1.2,1.1-1.8,1.2c-1,0.2-1.7-0.6-1.7-1.6c0-1,0.7-1.8,1.7-1.6c0.7,0.1,1.2,0.8,1.8,1.3
			C254.5,130.2,254.5,130.4,254.5,130.6z"/>
		<path d="M240.8,144.6c0.4,0.6,1.1,1.1,1.2,1.8c0.2,1-0.5,1.7-1.5,1.7c-1,0-1.8-0.7-1.6-1.7c0.1-0.7,0.8-1.2,1.2-1.8
			C240.4,144.6,240.6,144.6,240.8,144.6z"/>
		<path d="M215.9,152.3c-0.4-0.6-1.1-1.2-1.2-1.8c-0.2-1,0.6-1.8,1.6-1.6c0.6,0.1,1.5,1,1.5,1.5c0,0.6-0.8,1.3-1.2,1.9
			C216.4,152.3,216.2,152.3,215.9,152.3z"/>
		<path d="M266.9,158.2c0.6-0.4,1.1-1.1,1.8-1.2c1-0.2,1.8,0.6,1.6,1.5c-0.1,0.6-0.9,1.5-1.5,1.6c-0.6,0.1-1.3-0.7-1.9-1.2
			C266.9,158.7,266.9,158.5,266.9,158.2z"/>
		<path d="M266.9,170.3c0.6-0.4,1.3-1.2,1.9-1.2c0.6,0,1.4,0.9,1.5,1.5c0.2,1-0.6,1.7-1.6,1.6c-0.7-0.1-1.2-0.8-1.8-1.2
			C266.9,170.8,266.9,170.5,266.9,170.3z"/>
		<path d="M230.3,158.9c-0.6,0.4-1.3,1.2-1.9,1.2c-0.6,0-1.4-0.9-1.5-1.5c-0.2-1,0.6-1.7,1.6-1.5c0.7,0.1,1.2,0.8,1.8,1.2
			C230.3,158.4,230.3,158.7,230.3,158.9z"/>
		<path d="M246.7,125.9c0.6-0.4,1.1-1.1,1.8-1.2c1-0.2,1.7,0.6,1.7,1.6c0,1-0.7,1.7-1.7,1.6c-0.6-0.1-1.2-0.8-1.8-1.3
			C246.7,126.3,246.7,126.1,246.7,125.9z"/>
		<path d="M262.5,171c-0.6,0.4-1.2,1.1-1.8,1.2c-1,0.2-1.8-0.6-1.6-1.6c0.1-0.6,1-1.5,1.5-1.5c0.6,0,1.3,0.8,1.9,1.2
			C262.6,170.5,262.6,170.8,262.5,171z"/>
		<path d="M246.3,170.6c1.1-0.7,1.6-1.4,2.3-1.5c1-0.1,1.7,0.6,1.6,1.6c0,1-0.7,1.7-1.7,1.5C247.8,172.1,247.3,171.4,246.3,170.6z"
			/>
		<path d="M249,112.3c0.4,0.6,1.2,1.3,1.2,1.9c0,0.6-0.9,1.4-1.6,1.5c-1,0.2-1.7-0.6-1.5-1.6c0.1-0.6,0.8-1.2,1.2-1.8
			C248.5,112.3,248.7,112.3,249,112.3z"/>
		<path d="M246.7,182.5c0.6-0.4,1.1-1.2,1.8-1.3c1-0.2,1.7,0.6,1.7,1.6c0,1-0.6,1.8-1.7,1.6c-0.7-0.1-1.2-0.8-1.8-1.2
			C246.7,182.9,246.7,182.7,246.7,182.5z"/>
		<path d="M216.7,168.8c0.4,0.7,1.2,1.3,1.1,2c0,0.5-0.9,1.4-1.6,1.5c-1,0.2-1.7-0.6-1.5-1.6c0.1-0.7,0.8-1.2,1.3-1.8
			C216.3,168.8,216.5,168.8,216.7,168.8z"/>
		<path d="M248.2,140.2c-0.4-0.6-1-1.2-1.1-1.9c-0.1-1,0.6-1.6,1.6-1.6c1,0,1.8,0.7,1.6,1.7c-0.1,0.7-0.9,1.2-1.3,1.8
			C248.6,140.2,248.4,140.2,248.2,140.2z"/>
		<path d="M261.1,156.7c0.4,0.6,1,1.2,1.1,1.8c0.1,1-0.7,1.8-1.6,1.6c-0.6-0.1-1.5-1-1.5-1.6c0-0.6,0.8-1.2,1.3-1.9
			C260.6,156.7,260.9,156.7,261.1,156.7z"/>
		<path d="M246.7,158.2c0.6-0.4,1.2-1.1,1.8-1.2c1-0.2,1.6,0.5,1.6,1.5c0,1-0.6,1.8-1.6,1.6c-0.7-0.1-1.2-0.8-1.8-1.2
			C246.7,158.6,246.7,158.4,246.7,158.2z"/>
		<path d="M216.6,156.7c0.4,0.6,1.1,1.1,1.2,1.8c0.2,1-0.6,1.7-1.6,1.7c-1,0-1.8-0.7-1.5-1.7c0.1-0.7,0.8-1.2,1.2-1.8
			C216.2,156.7,216.4,156.7,216.6,156.7z"/>
		<path class="st0" d="M144.3,99c4.9,1.3,9.7,2.5,14.4,3.9c4.5,1.3,9.1,2.7,13.6,4.1c0.5,0.1,0.9,0.3,1.4,0.5
			c1.5,0.8,2.1,2.4,1.6,3.8c-0.6,1.5-2.1,2.4-3.7,1.9c-3.4-0.9-6.7-2-10-3c-5.8-1.6-11.7-3.2-17.5-4.8c-0.5-0.1-0.9-0.3-1.6-0.5
			C143,103.1,143.6,101.2,144.3,99z"/>
		<path class="st0" d="M145.4,95.6c0.6-1.9,1.2-3.8,1.9-5.9c2,0.5,4,0.9,5.9,1.5c7.3,2.4,14.7,4.8,22,7.3c1.9,0.6,2.6,1.9,2.4,3.6
			c-0.2,1.4-1.2,2.5-2.6,2.6c-0.7,0.1-1.4-0.1-2-0.3c-8.8-3.4-17.7-6.3-26.9-8.5C145.8,95.9,145.7,95.8,145.4,95.6z"/>
		<path class="st0" d="M150.2,80.4c8,1.8,15.5,4.3,22.7,7.5c1.5,0.7,3.1,1.4,4.6,2.1c2,1,2.8,2.7,2,4.4c-0.8,1.6-2.6,2.2-4.6,1.3
			c-6.4-3-12.9-5.6-19.7-7.5c-2.2-0.6-4.5-1.2-6.9-1.8C148.9,84.4,149.6,82.5,150.2,80.4z"/>
		<path class="st0" d="M151.3,77.1c0.6-2.1,1.2-4,1.9-6c2.2,0.5,4.3,1,6.4,1.6c7,2.1,13.8,4.9,20.1,8.7c0.9,0.5,1.7,1.5,2.1,2.5
			c0.5,1.1-0.1,2.3-1.1,3.1c-1.1,0.8-2.3,0.8-3.5,0.2c-2.4-1.3-4.8-2.6-7.3-3.8c-5.6-2.7-11.5-4.5-17.6-5.9
			C152,77.3,151.8,77.2,151.3,77.1z"/>
		<path class="st0" d="M135.5,267.5c-0.2,1.4-0.3,2.7-0.7,4.1c-0.6,2-2.3,3.3-4.2,3.3c-1.7,0-3.4-1.2-4-3.2
			c-0.7-2.3-0.7-4.6,0.1-6.8c0.8-2.2,2.7-3.5,4.7-3.2c2.4,0.4,3.9,2.1,4,4.6c0,0.4,0,0.8,0,1.2C135.4,267.5,135.5,267.5,135.5,267.5
			z"/>
		<path class="st0" d="M93.1,256.6c1-2.6,2-5.1,3-7.7c1.8,0.7,3.5,1.3,5.1,2.1c2.2,1,2.9,3.2,2.1,5.3c-0.8,2.1-2.8,2.9-5.1,2.1
			C96.5,257.9,94.9,257.2,93.1,256.6z"/>
		<path class="st0" d="M172.7,268.9c0.7,4.2-2.3,7.3-6,6.7c-1.6-0.2-2.6-1.2-2.7-2.5c-0.1-1.5,0.6-2.6,1.9-3
			C168,269.6,170.3,269.3,172.7,268.9z"/>
		<path class="st0" d="M164.5,30.6c0,4.4-3,7-6.7,6.2c-1.4-0.3-2.5-1.4-2.5-2.7c0-1.5,0.8-2.6,2.1-2.8
			C159.7,30.8,162.1,30.8,164.5,30.6z"/>
		<path class="st0" d="M118.3,265.6c-0.5,1.6-0.9,3.3-1.7,4.8c-0.9,1.7-2.5,2.7-4.5,2.4c-2.1-0.3-3.4-1.7-4-3.7
			c-0.7-2.3-0.3-4.6,0.9-6.7c1.2-2.1,3.2-3,5.3-2.6c1.9,0.4,3.4,2.3,3.6,4.6c0,0.3,0,0.7,0.1,1C118.1,265.5,118.2,265.5,118.3,265.6
			z"/>
	</g>
</g>
</svg>
